<svg width="96" height="24" viewBox="0 0 96 24" fill="none" xmlns="http://www.w3.org/2000/svg">
<path d="M20 10.9996H7.83L13.42 5.40963L12 3.99963L4 11.9996L12 19.9996L13.41 18.5896L7.83 12.9996H20V10.9996Z" fill="#79747E"/>
<path d="M48 3.99963L46.59 5.40963L52.17 10.9996H40V12.9996H52.17L46.59 18.5896L48 19.9996L56 11.9996L48 3.99963Z" fill="#79747E"/>
<path d="M89.6498 6.34963C88.1998 4.89963 86.2098 3.99963 83.9998 3.99963C79.5798 3.99963 76.0098 7.57963 76.0098 11.9996C76.0098 16.4196 79.5798 19.9996 83.9998 19.9996C87.7298 19.9996 90.8398 17.4496 91.7298 13.9996H89.6498C88.8298 16.3296 86.6098 17.9996 83.9998 17.9996C80.6898 17.9996 77.9998 15.3096 77.9998 11.9996C77.9998 8.68963 80.6898 5.99963 83.9998 5.99963C85.6598 5.99963 87.1398 6.68963 88.2198 7.77963L84.9998 10.9996H91.9998V3.99963L89.6498 6.34963Z" fill="#79747E"/>
</svg>
