<svg width="16" height="16" viewBox="0 0 16 16" fill="none" xmlns="http://www.w3.org/2000/svg">
<g clip-path="url(#clip0_5_2118)">
<path opacity="0.65" d="M11.5201 5.44057H10.8801V4.16057C10.8801 2.39417 9.44646 0.960571 7.68006 0.960571C5.91366 0.960571 4.48006 2.39417 4.48006 4.16057V5.44057H3.84006C3.13606 5.44057 2.56006 6.01657 2.56006 6.72057V13.1206C2.56006 13.8246 3.13606 14.4006 3.84006 14.4006H11.5201C12.2241 14.4006 12.8001 13.8246 12.8001 13.1206V6.72057C12.8001 6.01657 12.2241 5.44057 11.5201 5.44057ZM7.68006 11.2006C6.97606 11.2006 6.40006 10.6246 6.40006 9.92057C6.40006 9.21657 6.97606 8.64057 7.68006 8.64057C8.38406 8.64057 8.96006 9.21657 8.96006 9.92057C8.96006 10.6246 8.38406 11.2006 7.68006 11.2006ZM9.66406 5.44057H5.69606V4.16057C5.69606 3.06617 6.58566 2.17657 7.68006 2.17657C8.77446 2.17657 9.66406 3.06617 9.66406 4.16057V5.44057Z" fill="#49454F"/>
</g>
<defs>
<clipPath id="clip0_5_2118">
<rect width="15.36" height="15.36" fill="white" transform="translate(0 0.319946)"/>
</clipPath>
</defs>
</svg>
