<svg width="200" height="200" viewBox="0 0 200 200" fill="none" xmlns="http://www.w3.org/2000/svg">
<rect width="200" height="200" rx="100" fill="#EADDFF"/>
<path fill-rule="evenodd" clip-rule="evenodd" d="M130.001 80C130.001 96.5685 116.57 110 100.001 110C83.4327 110 70.0012 96.5685 70.0012 80C70.0012 63.4315 83.4327 50 100.001 50C116.57 50 130.001 63.4315 130.001 80ZM120.001 80C120.001 91.0457 111.047 100 100.001 100C88.9555 100 80.0012 91.0457 80.0012 80C80.0012 68.9543 88.9555 60 100.001 60C111.047 60 120.001 68.9543 120.001 80Z" fill="#4F378A"/>
<path d="M100.001 125C67.6293 125 40.0476 144.142 29.541 170.96C32.1005 173.502 34.7967 175.906 37.6177 178.16C45.4414 153.538 69.9848 135 100.001 135C130.018 135 154.561 153.539 162.385 178.16C165.206 175.906 167.902 173.502 170.461 170.96C159.955 144.142 132.373 125 100.001 125Z" fill="#4F378A"/>
</svg>
